<?xml version="1.0" encoding="UTF-8"?>
<!DOCTYPE svg PUBLIC "-//W3C//DTD SVG 1.1//EN" "http://www.w3.org/Graphics/SVG/1.1/DTD/svg11.dtd">
<svg xmlns="http://www.w3.org/2000/svg" version="1.1" width="25px" height="25px" style="shape-rendering:geometricPrecision; text-rendering:geometricPrecision; image-rendering:optimizeQuality; fill-rule:evenodd; clip-rule:evenodd" xmlns:xlink="http://www.w3.org/1999/xlink">
<g><path style="opacity:0.951" fill="#072046" d="M 6.5,-0.5 C 9.83333,-0.5 13.1667,-0.5 16.5,-0.5C 19.7843,1.11698 22.4509,3.45031 24.5,6.5C 24.5,10.1667 24.5,13.8333 24.5,17.5C 22.5,20.1667 20.1667,22.5 17.5,24.5C 16.1667,24.5 14.8333,24.5 13.5,24.5C 13.5,21.5 13.5,18.5 13.5,15.5C 14.5,15.5 15.5,15.5 16.5,15.5C 16.5,14.5 16.5,13.5 16.5,12.5C 15.5,12.5 14.5,12.5 13.5,12.5C 12.8429,9.15919 14.1763,7.15919 17.5,6.5C 15.515,4.06743 13.3483,4.06743 11,6.5C 10.5045,8.4727 10.3379,10.4727 10.5,12.5C 9.5,12.5 8.5,12.5 7.5,12.5C 7.5,13.5 7.5,14.5 7.5,15.5C 8.5,15.5 9.5,15.5 10.5,15.5C 10.5,18.5 10.5,21.5 10.5,24.5C 9.16667,24.5 7.83333,24.5 6.5,24.5C 3.83333,22.5 1.5,20.1667 -0.5,17.5C -0.5,14.1667 -0.5,10.8333 -0.5,7.5C 1.11698,4.21573 3.45031,1.54906 6.5,-0.5 Z"/></g>
</svg>
