<?xml version="1.0" encoding="UTF-8"?>
<!DOCTYPE svg PUBLIC "-//W3C//DTD SVG 1.1//EN" "http://www.w3.org/Graphics/SVG/1.1/DTD/svg11.dtd">
<svg xmlns="http://www.w3.org/2000/svg" version="1.1" width="25px" height="25px" style="shape-rendering:geometricPrecision; text-rendering:geometricPrecision; image-rendering:optimizeQuality; fill-rule:evenodd; clip-rule:evenodd" xmlns:xlink="http://www.w3.org/1999/xlink">
<g><path style="opacity:0.74" fill="#072047" d="M 2.5,-0.5 C 8.83333,-0.5 15.1667,-0.5 21.5,-0.5C 21.8333,0.166667 22.1667,0.833333 22.5,1.5C 22.4431,2.60895 22.1098,3.60895 21.5,4.5C 20.7638,6.22945 19.4305,7.22945 17.5,7.5C 17.5,6.83333 17.1667,6.5 16.5,6.5C 16.5743,4.5891 17.5743,3.42244 19.5,3C 14.5111,2.50074 9.51108,2.33407 4.5,2.5C 3.60895,1.89022 2.60895,1.55688 1.5,1.5C 1.83333,0.833333 2.16667,0.166667 2.5,-0.5 Z"/></g>
<g><path style="opacity:0.889" fill="#062047" d="M 1.5,1.5 C 2.60895,1.55688 3.60895,1.89022 4.5,2.5C 4.21719,3.28913 3.71719,3.9558 3,4.5C 2.50085,9.1548 2.33418,13.8215 2.5,18.5C 1.59872,19.2905 0.932053,20.2905 0.5,21.5C 0.166667,21.5 -0.166667,21.5 -0.5,21.5C -0.5,15.1667 -0.5,8.83333 -0.5,2.5C 0.166667,2.16667 0.833333,1.83333 1.5,1.5 Z"/></g>
<g><path style="opacity:0.847" fill="#062046" d="M 22.5,1.5 C 23.1667,1.83333 23.8333,2.16667 24.5,2.5C 24.5,8.83333 24.5,15.1667 24.5,21.5C 23.5,22.1667 22.5,22.8333 21.5,23.5C 16.7305,22.8829 12.0638,22.2162 7.5,21.5C 11.5138,21.6655 15.5138,21.4988 19.5,21C 20,20.5 20.5,20 21,19.5C 21.4993,14.5111 21.6659,9.51108 21.5,4.5C 22.1098,3.60895 22.4431,2.60895 22.5,1.5 Z"/></g>
<g><path style="opacity:0.804" fill="#062046" d="M 16.5,6.5 C 17.1667,6.5 17.5,6.83333 17.5,7.5C 20.0676,15.7659 17.0676,19.2659 8.5,18C 4.5,14 4.5,10 8.5,6C 11.2605,5.27817 13.9272,5.44484 16.5,6.5 Z M 9.5,8.5 C 15.1581,7.67937 16.8248,9.84604 14.5,15C 8.74102,16.1387 7.07435,13.972 9.5,8.5 Z"/></g>
<g><path style="opacity:0.891" fill="#071f46" d="M 2.5,18.5 C 3.40058,20.7271 5.06725,21.7271 7.5,21.5C 12.0638,22.2162 16.7305,22.8829 21.5,23.5C 21.5,23.8333 21.5,24.1667 21.5,24.5C 15.1667,24.5 8.83333,24.5 2.5,24.5C 1.83333,23.5 1.16667,22.5 0.5,21.5C 0.932053,20.2905 1.59872,19.2905 2.5,18.5 Z"/></g>
</svg>
