<?xml version="1.0" encoding="UTF-8"?>
<!DOCTYPE svg PUBLIC "-//W3C//DTD SVG 1.1//EN" "http://www.w3.org/Graphics/SVG/1.1/DTD/svg11.dtd">
<svg xmlns="http://www.w3.org/2000/svg" version="1.1" width="24px" height="20px" style="shape-rendering:geometricPrecision; text-rendering:geometricPrecision; image-rendering:optimizeQuality; fill-rule:evenodd; clip-rule:evenodd" xmlns:xlink="http://www.w3.org/1999/xlink">
<g><path style="opacity:0.934" fill="#072046" d="M 12.5,-0.5 C 14.8333,-0.5 17.1667,-0.5 19.5,-0.5C 20.1667,0.833333 20.8333,0.833333 21.5,-0.5C 22.1667,-0.5 22.8333,-0.5 23.5,-0.5C 23.5,-0.166667 23.5,0.166667 23.5,0.5C 22.1667,0.833333 22.1667,1.16667 23.5,1.5C 23.5,2.16667 23.5,2.83333 23.5,3.5C 21.9376,6.64154 20.4376,9.97487 19,13.5C 17.086,15.8565 14.9193,17.8565 12.5,19.5C 8.83333,19.5 5.16667,19.5 1.5,19.5C 1.15829,18.6618 0.491622,18.3284 -0.5,18.5C -0.5,17.8333 -0.5,17.1667 -0.5,16.5C 5.14601,16.8493 5.81268,15.3493 1.5,12C 0.419201,8.48354 0.419201,4.65021 1.5,0.5C 3.95428,2.81049 6.78761,4.47716 10,5.5C 10.5725,3.35943 11.4058,1.35943 12.5,-0.5 Z"/></g>
</svg>
